# xmcd CD database file
#
# Track frame offsets:
#	150
#	27660
#	44905
#	64560
#	81427
#	99390
#	118872
#	138637
#	151230
#	168090
#	187835
#	206252
#	224785
#	233517
#
# Disc length: 3441 seconds
#
# Revision: 6
# Processed by: cddbd v1.5.2PL0 Copyright (c) Steve Scherf et al.
# Submitted via: CDex 1.70beta2
#
DISCID=c50d6f0e
DTITLE=梅艷芳 - With
DYEAR=2002
DGENRE=Pop
TTITLE0=芳華絕代/ 梅艷芳、張國榮
TTITLE1=約會/ 梅艷芳、黃耀明
TTITLE2=花生騷/ 梅艷芳、王菲
TTITLE3=相愛很難/ 梅艷芳、張學友
TTITLE4=兩個女人/ 梅艷芳、林憶蓮
TTITLE5=彈彈琴跳跳舞/ 梅艷芳、劉德華
TTITLE6=夏娃夏娃/ 梅艷芳、陳慧琳
TTITLE7=路人甲乙/ 梅艷芳、譚詠麟
TTITLE8=單身女子/ 梅艷芳、鄭秀文
TTITLE9=兩粒糖/ 梅艷芳、蘇永康
TTITLE10=先謊夜談/ 梅艷芳、許志安
TTITLE11=芳華絕代亂世佳人 (lego version) Part 1
TTITLE12=芳華絕代亂世佳人 (lego version) Part 1
TTITLE13=芳華絕代亂世佳人 (lego version) Part 3 and 路人甲乙
EXTD=YEAR: 2002
EXTT0=
EXTT1=
EXTT2=
EXTT3=
EXTT4=
EXTT5=
EXTT6=
EXTT7=
EXTT8=
EXTT9=
EXTT10=
EXTT11=
EXTT12=
EXTT13=
PLAYORDER=
